<svg width="547" height="489" viewBox="0 0 547 489" fill="none" xmlns="http://www.w3.org/2000/svg">
<path d="M513.981 140.221C467.993 109.76 387.391 114.768 352.001 119.264C360.286 100.272 361.134 78.8623 354.376 59.2763C335.794 12.6943 256.376 -17.7667 155.996 11.5063C145.219 14.0532 49.8557 39.0803 12.9457 135.466V135.462C-4.07729 180.212 -4.32029 229.614 12.266 274.532C12.2231 274.958 12.2231 275.384 12.266 275.806C12.266 278.946 20.7504 352.763 29.235 386.956C32.1217 399.597 34.9186 414.702 37.7194 429.382L41.1999 447.37V447.366C42.8679 456.233 47.3522 464.327 53.9849 470.44C60.6216 476.557 69.0509 480.366 78.0239 481.307C115.981 485.885 154.169 488.237 192.404 488.35C237.588 488.194 282.705 484.791 327.404 478.166C390.06 469.916 450.804 450.854 506.944 421.826C515.128 417.49 521.971 411.002 526.741 403.064C531.51 395.123 534.022 386.033 534.01 376.771V313.814C542.346 301.966 546.822 287.83 546.822 273.341V203.427V202.493C547.229 177.489 534.849 154.005 513.986 140.216L513.981 140.221ZM529.848 273.341C529.918 282.818 527.438 292.138 522.656 300.321C517.879 308.505 510.984 315.247 502.695 319.837C462.633 341.575 419.824 357.817 375.425 368.118C246.375 398.493 145.225 387.634 63.9453 378.977L44.8553 377.024C41.2069 360.055 37.5584 336.637 34.7573 316.016V316.02C35.5268 316.442 36.3589 316.727 37.2182 316.868C93.2772 323.837 149.668 327.747 206.148 328.579L203.519 344.7C202.988 348.036 204.488 351.368 207.336 353.184C208.687 354.02 210.246 354.461 211.836 354.458C213.594 354.469 215.312 353.938 216.754 352.93C226.68 345.907 235.734 337.731 243.738 328.578C256.976 328.578 268.429 327.985 277.676 327.477V327.473C282.703 341.317 289.676 354.371 298.379 366.25C299.98 368.441 302.535 369.734 305.254 369.73C305.898 369.816 306.555 369.816 307.203 369.73C310.547 368.953 313.09 366.238 313.652 362.855L319.082 328.917L369.312 337.402C373.312 338.038 377.202 335.761 378.605 331.964C380.007 328.163 378.535 323.906 375.081 321.788C371.941 319.835 368.972 317.714 366.003 315.593C466.463 295.058 510.243 261.46 529.673 239.23L529.848 273.341ZM178.148 206.056C175.531 206.326 172.933 205.365 171.124 203.455C169.312 201.545 168.492 198.9 168.902 196.299L175.351 156.42H175.347C175.773 153.814 177.386 151.552 179.718 150.306C182.046 149.06 184.82 148.966 187.226 150.056L249.164 178.224L245.769 198.927L178.148 206.056ZM270.378 168.978C272.222 167.67 274.514 167.15 276.741 167.537L299.819 171.271L309.831 172.885L309.835 172.881C312.065 173.236 314.062 174.467 315.382 176.295C316.706 178.127 317.241 180.412 316.874 182.639L311.444 216.155C310.667 220.768 306.304 223.881 301.687 223.112L268.171 217.682C265.956 217.326 263.975 216.104 262.659 214.287C261.346 212.444 260.827 210.155 261.214 207.924L266.815 174.58C267.194 172.307 268.479 170.283 270.378 168.979L270.378 168.978ZM332.913 191.802L400.792 184.673V184.677C403.421 184.408 406.022 185.38 407.835 187.306C409.628 189.212 410.444 191.845 410.038 194.435L403.589 234.4V234.396C403.155 237.01 401.522 239.271 399.178 240.506C396.8 241.689 394.007 241.689 391.628 240.506L329.605 212.506L332.913 191.802ZM269.022 288.868C269.545 295.118 270.483 301.325 271.819 307.45C271.819 308.552 272.412 309.657 272.752 310.845L256.631 311.439C257.991 309.485 259.346 307.622 260.534 305.583H260.537C263.748 300.216 266.584 294.63 269.022 288.868L269.022 288.868ZM288.366 303.802C284.092 283.013 284.733 261.513 290.233 241.013C290.233 240.166 290.233 239.4 290.659 238.552L294.053 239.146L294.049 239.15C299.248 258.248 307.873 276.248 319.506 292.263C325.416 300.509 332.092 308.181 339.444 315.173L313.991 311.017V311.013C311.753 310.708 309.48 311.251 307.628 312.54C305.812 313.861 304.593 315.841 304.233 318.056L300.753 337.744C295.14 327.029 290.976 315.615 288.366 303.803L288.366 303.802ZM349.542 301.427C343.35 295.56 337.671 289.173 332.573 282.337C326.842 274.345 321.897 265.821 317.807 256.88L383.479 294.212C373.213 296.759 361.76 299.22 349.541 301.427L349.542 301.427ZM407.237 288.021L316.706 236.517C319.831 234.568 322.491 231.963 324.51 228.881L384.498 256.119C387.784 257.685 391.381 258.498 395.021 258.494C399.201 258.498 403.314 257.447 406.982 255.439C413.557 251.943 418.271 245.74 419.88 238.47L467.564 265.029C448.22 274.564 428.021 282.259 407.236 288.021L407.237 288.021ZM261.387 233.38C262.606 233.779 263.856 234.091 265.117 234.314C263.844 256.419 257.266 277.896 245.941 296.931C239.812 307.388 232.304 316.974 223.629 325.439L226.77 305.837H226.766C227.133 303.61 226.598 301.325 225.274 299.497C223.953 297.665 221.957 296.435 219.727 296.083L194.274 291.927L194.27 291.923C203.453 287.571 212.231 282.403 220.489 276.482C236.634 264.724 250.493 250.115 261.387 233.38L261.387 233.38ZM160.337 28.4703C250.7 1.91134 323.157 27.1969 338.517 65.8883C342.251 75.1383 346.068 95.2473 330.032 126.81H330.028C328.443 129.869 328.868 133.588 331.103 136.213C333.337 138.838 336.935 139.849 340.212 138.771C349.798 136.142 454.332 121.802 504.652 154.638C527.05 169.4 533.925 198.927 527.644 211.658C527.453 212.006 527.308 212.377 527.218 212.76C526.71 214.119 519.667 233.549 484.792 255.186L422.683 220.651L426.418 197.401V197.405C427.675 189.588 425.222 181.635 419.789 175.882C414.351 170.132 406.547 167.233 398.676 168.046L333.172 175.003C331.898 170.284 329.293 166.026 325.668 162.749C322.043 159.468 317.547 157.3 312.723 156.507L305.34 155.233L112.39 47.4732C127.492 39.1138 143.605 32.7272 160.331 28.4692L160.337 28.4703ZM95.9387 58.0833L265.639 152.688C260.807 154.501 256.697 157.837 253.928 162.188L194.026 134.95V134.954C186.807 131.65 178.464 131.9 171.456 135.634C166.628 138.2 162.784 142.286 160.511 147.259L59.7107 90.1539C70.3237 77.8179 82.5037 66.9199 95.9407 57.7439L95.9387 58.0833ZM28.7357 141.825C33.9466 128.329 40.8137 115.532 49.1847 103.731L156.515 164.989L151.847 193.583H151.851C150.644 201.009 152.784 208.583 157.694 214.278C162.605 219.973 169.784 223.208 177.303 223.11H180.018L245.436 216.239C246.116 218.505 247.085 220.673 248.323 222.688C227.651 254.926 195.186 277.793 157.874 286.407C153.186 286.548 149.503 290.462 149.643 295.15C149.784 299.833 153.698 303.521 158.382 303.38L208.698 311.865C153.386 311.173 98.1577 307.493 43.2377 300.834C33.3979 283.693 0.0497208 217.174 28.7297 141.824L28.7357 141.825ZM499.056 406.805C444.63 434.86 385.746 453.262 325.036 461.192C243.907 473.094 161.556 474.094 80.1557 464.161C74.8393 463.587 69.8357 461.353 65.8627 457.771C61.8861 454.192 59.14 449.45 58.0111 444.224L54.7025 425.896C52.6673 415.291 50.6283 404.513 48.5072 394.501L61.9992 395.86C108.261 401.54 154.8 404.657 201.409 405.192C261.225 405.379 320.859 398.544 379.079 384.829C425.052 374.138 469.376 357.302 510.849 334.767C512.982 333.548 515.052 332.22 517.044 330.783V376.771V376.767C517.056 382.939 515.392 388.994 512.22 394.287C509.052 399.576 504.502 403.908 499.056 406.807L499.056 406.805Z" fill="white"/>
</svg>
